<svg xmlns="http://www.w3.org/2000/svg" xmlns:xlink="http://www.w3.org/1999/xlink" width="1600" height="754.72"><rect width="1600" height="754.72" rx="5" ry="5" class="a"/><svg y="0%" x="0%"><circle cx="20" cy="20" r="6" fill="#ff5f58"/><circle cx="40" cy="20" r="6" fill="#ffbd2e"/><circle cx="60" cy="20" r="6" fill="#18c132"/></svg><svg height="694.72" viewBox="0 0 156 69.472" width="1560" x="15" xmlns="http://www.w3.org/2000/svg" xmlns:xlink="http://www.w3.org/1999/xlink" y="50"><style>@keyframes l{0%{transform:translateX(0)}21.9%{transform:translateX(-156px)}25.4%{transform:translateX(-312px)}28.7%{transform:translateX(-468px)}37.8%{transform:translateX(-624px)}40.8%{transform:translateX(-780px)}43.1%{transform:translateX(-936px)}48.9%{transform:translateX(-1092px)}51.9%{transform:translateX(-1248px)}54.6%{transform:translateX(-1404px)}57.3%{transform:translateX(-1560px)}59.9%{transform:translateX(-1716px)}62.5%{transform:translateX(-1872px)}65.2%{transform:translateX(-2028px)}74.1%{transform:translateX(-2184px)}78.8%{transform:translateX(-2340px)}83.8%{transform:translateX(-2496px)}87.8%{transform:translateX(-2652px)}91.6%{transform:translateX(-2808px)}to{transform:translateX(-2964px)}}.a{fill:#282d35}.h{font-weight:700}.h,.i,.j{fill:#b9fbc0;white-space:pre}.j{fill:#b9c0cb}</style><g font-family="Monaco,Consolas,Menlo,'Bitstream Vera Sans Mono','Powerline Symbols',monospace" font-size="1.67"><defs><symbol id="1"><path fill="#109e5e" d="M3.006 0h16v2.171h-16z"/><text x="3.006" y="1.67" style="white-space:pre" fill="#fff">MENU PRINCIPAL</text></symbol><symbol id="2"><text x="3.006" y="1.67" class="h">▏</text><text x="5.01" y="1.67" class="h">Consulta</text><text x="14.028" y="1.67" class="h">de</text><text x="17.034" y="1.67" class="h">almacén</text></symbol><symbol id="3"><text x="3.006" y="1.67" class="i">▏</text><text x="5.01" y="1.67" class="i">Enlista</text><text x="13.026" y="1.67" class="i">los</text><text x="17.034" y="1.67" class="i">productos</text><text x="27.054" y="1.67" class="i">disponibles</text></symbol><symbol id="4"><text x="5.01" y="1.67" class="j">Actualizar</text><text x="16.032" y="1.67" class="j">almacén</text></symbol><symbol id="5"><text x="5.01" y="1.67" class="j">Sumar</text><text x="11.022" y="1.67" class="j">/</text><text x="13.026" y="1.67" class="j">Modificar</text><text x="23.046" y="1.67" class="j">inventario,</text><text x="35.07" y="1.67" class="j">agregar</text><text x="43.086" y="1.67" class="j">productos</text></symbol><symbol id="6"><text x="5.01" y="1.67" class="j">Registrar</text><text x="15.03" y="1.67" class="j">Pedido</text></symbol><symbol id="7"><text x="5.01" y="1.67" class="j">Registrar</text><text x="15.03" y="1.67" class="j">información</text><text x="27.054" y="1.67" class="j">del</text><text x="31.062" y="1.67" class="j">pedido</text><text x="38.076" y="1.67" class="j">y</text><text x="40.08" y="1.67" class="j">del</text><text x="44.088" y="1.67" class="j">cliente</text></symbol><symbol id="8"><text x="5.01" y="1.67" class="j">Consultar</text><text x="15.03" y="1.67" class="j">Pedido</text></symbol><symbol id="9"><text x="5.01" y="1.67" class="j">Enlista</text><text x="13.026" y="1.67" class="j">los</text><text x="17.034" y="1.67" class="j">pedidos</text><text x="25.05" y="1.67" class="j">por</text><text x="29.058" y="1.67" class="j">Activos,</text><text x="38.076" y="1.67" class="j">Entregados,</text><text x="50.1" y="1.67" class="j">Cancelados</text><text x="61.122" y="1.67" class="j">e</text><text x="63.126" y="1.67" class="j">ID</text></symbol><symbol id="10"><text x="5.01" y="1.67" class="j">Registrar</text><text x="15.03" y="1.67" class="j">entrega</text></symbol><symbol id="11"><text x="5.01" y="1.67" class="j">Registra</text><text x="14.028" y="1.67" class="j">la</text><text x="17.034" y="1.67" class="j">entrega</text><text x="25.05" y="1.67" class="j">de</text><text x="28.056" y="1.67" class="j">un</text><text x="31.062" y="1.67" class="j">pedido</text><text x="38.076" y="1.67" class="j">y</text><text x="40.08" y="1.67" class="j">actualiza</text><text x="50.1" y="1.67" class="j">el</text><text x="53.106" y="1.67" class="j">inventario</text></symbol><symbol id="12"><text x="5.01" y="1.67" class="j">Modificar</text><text x="15.03" y="1.67" class="j">estado</text><text x="22.044" y="1.67" class="j">de</text><text x="25.05" y="1.67" class="j">pedido</text></symbol><symbol id="13"><text x="5.01" y="1.67" class="j">Modifica</text><text x="14.028" y="1.67" class="j">el</text><text x="17.034" y="1.67" class="j">estado</text><text x="24.048" y="1.67" class="j">del</text><text x="28.056" y="1.67" class="j">pedido</text><text x="35.07" y="1.67" class="j">del</text><text x="39.078" y="1.67" class="j">cliente</text></symbol><symbol id="14"><text x="5.01" y="1.67" class="j">Salir</text><text x="11.022" y="1.67" class="j">del</text><text x="15.03" y="1.67" class="j">sistema</text></symbol><symbol id="15"><text x="5.01" y="1.67" class="j">Cierra</text><text x="12.024" y="1.67" class="j">la</text><text x="15.03" y="1.67" class="j">sesión</text><text x="22.044" y="1.67" class="j">actual</text></symbol><symbol id="16"><text x="3.006" y="1.67" class="i">↓↑</text><text x="6.012" y="1.67" class="j">Arriba</text><text x="13.026" y="1.67" class="j">/</text><text x="15.03" y="1.67" class="j">Abajo</text></symbol><symbol id="17"><text x="3.006" y="1.67" class="i">enter</text><text x="9.018" y="1.67" class="j">Seleccionar</text></symbol><symbol id="18"><text x="5.01" y="1.67" class="j">Consulta</text><text x="14.028" y="1.67" class="j">de</text><text x="17.034" y="1.67" class="j">almacén</text></symbol><symbol id="19"><text x="5.01" y="1.67" class="j">Enlista</text><text x="13.026" y="1.67" class="j">los</text><text x="17.034" y="1.67" class="j">productos</text><text x="27.054" y="1.67" class="j">disponibles</text></symbol><symbol id="20"><text x="3.006" y="1.67" class="h">▏</text><text x="5.01" y="1.67" class="h">Actualizar</text><text x="16.032" y="1.67" class="h">almacén</text></symbol><symbol id="21"><text x="3.006" y="1.67" class="i">▏</text><text x="5.01" y="1.67" class="i">Sumar</text><text x="11.022" y="1.67" class="i">/</text><text x="13.026" y="1.67" class="i">Modificar</text><text x="23.046" y="1.67" class="i">inventario,</text><text x="35.07" y="1.67" class="i">agregar</text><text x="43.086" y="1.67" class="i">productos</text></symbol><symbol id="22"><text x="3.006" y="1.67" class="h">▏</text><text x="5.01" y="1.67" class="h">Registrar</text><text x="15.03" y="1.67" class="h">Pedido</text></symbol><symbol id="23"><text x="3.006" y="1.67" class="i">▏</text><text x="5.01" y="1.67" class="i">Registrar</text><text x="15.03" y="1.67" class="i">información</text><text x="27.054" y="1.67" class="i">del</text><text x="31.062" y="1.67" class="i">pedido</text><text x="38.076" y="1.67" class="i">y</text><text x="40.08" y="1.67" class="i">del</text><text x="44.088" y="1.67" class="i">cliente</text></symbol><symbol id="24"><text x="3.006" y="1.67" class="h">▏</text><text x="5.01" y="1.67" class="h">Consultar</text><text x="15.03" y="1.67" class="h">Pedido</text></symbol><symbol id="25"><text x="3.006" y="1.67" class="i">▏</text><text x="5.01" y="1.67" class="i">Enlista</text><text x="13.026" y="1.67" class="i">los</text><text x="17.034" y="1.67" class="i">pedidos</text><text x="25.05" y="1.67" class="i">por</text><text x="29.058" y="1.67" class="i">Activos,</text><text x="38.076" y="1.67" class="i">Entregados,</text><text x="50.1" y="1.67" class="i">Cancelados</text><text x="61.122" y="1.67" class="i">e</text><text x="63.126" y="1.67" class="i">ID</text></symbol><symbol id="26"><text x="3.006" y="1.67" class="h">▏</text><text x="5.01" y="1.67" class="h">Registrar</text><text x="15.03" y="1.67" class="h">entrega</text></symbol><symbol id="27"><text x="3.006" y="1.67" class="i">▏</text><text x="5.01" y="1.67" class="i">Registra</text><text x="14.028" y="1.67" class="i">la</text><text x="17.034" y="1.67" class="i">entrega</text><text x="25.05" y="1.67" class="i">de</text><text x="28.056" y="1.67" class="i">un</text><text x="31.062" y="1.67" class="i">pedido</text><text x="38.076" y="1.67" class="i">y</text><text x="40.08" y="1.67" class="i">actualiza</text><text x="50.1" y="1.67" class="i">el</text><text x="53.106" y="1.67" class="i">inventario</text></symbol><symbol id="28"><text x="3.006" y="1.67" class="h">▏</text><text x="5.01" y="1.67" class="h">Modificar</text><text x="15.03" y="1.67" class="h">estado</text><text x="22.044" y="1.67" class="h">de</text><text x="25.05" y="1.67" class="h">pedido</text></symbol><symbol id="29"><text x="3.006" y="1.67" class="i">▏</text><text x="5.01" y="1.67" class="i">Modifica</text><text x="14.028" y="1.67" class="i">el</text><text x="17.034" y="1.67" class="i">estado</text><text x="24.048" y="1.67" class="i">del</text><text x="28.056" y="1.67" class="i">pedido</text><text x="35.07" y="1.67" class="i">del</text><text x="39.078" y="1.67" class="i">cliente</text></symbol><symbol id="30"><text x="3.006" y="1.67" class="h">▏</text><text x="5.01" y="1.67" class="h">Salir</text><text x="11.022" y="1.67" class="h">del</text><text x="15.03" y="1.67" class="h">sistema</text></symbol><symbol id="31"><text x="3.006" y="1.67" class="i">▏</text><text x="5.01" y="1.67" class="i">Cierra</text><text x="12.024" y="1.67" class="i">la</text><text x="15.03" y="1.67" class="i">sesión</text><text x="22.044" y="1.67" class="i">actual</text></symbol><symbol id="a"><path fill="transparent" d="M0 0h156v32H0z"/></symbol></defs><path class="a" d="M0 0h156v69.472H0z"/><g style="animation-duration:4.913080000000001s;animation-iteration-count:infinite;animation-name:l;animation-timing-function:steps(1,end)"><svg width="3120"><svg><use xlink:href="#a"/><use xlink:href="#1" y="2.171"/><use xlink:href="#2" y="6.513"/><use xlink:href="#3" y="8.684"/><use xlink:href="#4" y="13.026"/><use xlink:href="#5" y="15.197"/><use xlink:href="#6" y="19.539"/><use xlink:href="#7" y="21.71"/><use xlink:href="#8" y="26.052"/><use xlink:href="#9" y="28.223"/><use xlink:href="#10" y="32.565"/><use xlink:href="#11" y="34.736"/><use xlink:href="#12" y="39.078"/><use xlink:href="#13" y="41.249"/><use xlink:href="#14" y="45.591"/><use xlink:href="#15" y="47.762"/><use xlink:href="#16" y="60.788"/><use xlink:href="#17" y="62.959"/></svg><svg x="156"><use xlink:href="#a"/><use xlink:href="#1" y="2.171"/><use xlink:href="#18" y="6.513"/><use xlink:href="#19" y="8.684"/><use xlink:href="#20" y="13.026"/><use xlink:href="#21" y="15.197"/><use xlink:href="#6" y="19.539"/><use xlink:href="#7" y="21.71"/><use xlink:href="#8" y="26.052"/><use xlink:href="#9" y="28.223"/><use xlink:href="#10" y="32.565"/><use xlink:href="#11" y="34.736"/><use xlink:href="#12" y="39.078"/><use xlink:href="#13" y="41.249"/><use xlink:href="#14" y="45.591"/><use xlink:href="#15" y="47.762"/><use xlink:href="#16" y="60.788"/><use xlink:href="#17" y="62.959"/></svg><svg x="312"><use xlink:href="#a"/><use xlink:href="#1" y="2.171"/><use xlink:href="#18" y="6.513"/><use xlink:href="#19" y="8.684"/><use xlink:href="#4" y="13.026"/><use xlink:href="#5" y="15.197"/><use xlink:href="#22" y="19.539"/><use xlink:href="#23" y="21.71"/><use xlink:href="#8" y="26.052"/><use xlink:href="#9" y="28.223"/><use xlink:href="#10" y="32.565"/><use xlink:href="#11" y="34.736"/><use xlink:href="#12" y="39.078"/><use xlink:href="#13" y="41.249"/><use xlink:href="#14" y="45.591"/><use xlink:href="#15" y="47.762"/><use xlink:href="#16" y="60.788"/><use xlink:href="#17" y="62.959"/></svg><svg x="468"><use xlink:href="#a"/><use xlink:href="#1" y="2.171"/><use xlink:href="#18" y="6.513"/><use xlink:href="#19" y="8.684"/><use xlink:href="#4" y="13.026"/><use xlink:href="#5" y="15.197"/><use xlink:href="#6" y="19.539"/><use xlink:href="#7" y="21.71"/><use xlink:href="#24" y="26.052"/><use xlink:href="#25" y="28.223"/><use xlink:href="#10" y="32.565"/><use xlink:href="#11" y="34.736"/><use xlink:href="#12" y="39.078"/><use xlink:href="#13" y="41.249"/><use xlink:href="#14" y="45.591"/><use xlink:href="#15" y="47.762"/><use xlink:href="#16" y="60.788"/><use xlink:href="#17" y="62.959"/></svg><svg x="624"><use xlink:href="#a"/><use xlink:href="#1" y="2.171"/><use xlink:href="#18" y="6.513"/><use xlink:href="#19" y="8.684"/><use xlink:href="#4" y="13.026"/><use xlink:href="#5" y="15.197"/><use xlink:href="#6" y="19.539"/><use xlink:href="#7" y="21.71"/><use xlink:href="#8" y="26.052"/><use xlink:href="#9" y="28.223"/><use xlink:href="#26" y="32.565"/><use xlink:href="#27" y="34.736"/><use xlink:href="#12" y="39.078"/><use xlink:href="#13" y="41.249"/><use xlink:href="#14" y="45.591"/><use xlink:href="#15" y="47.762"/><use xlink:href="#16" y="60.788"/><use xlink:href="#17" y="62.959"/></svg><svg x="780"><use xlink:href="#a"/><use xlink:href="#1" y="2.171"/><use xlink:href="#18" y="6.513"/><use xlink:href="#19" y="8.684"/><use xlink:href="#4" y="13.026"/><use xlink:href="#5" y="15.197"/><use xlink:href="#6" y="19.539"/><use xlink:href="#7" y="21.71"/><use xlink:href="#8" y="26.052"/><use xlink:href="#9" y="28.223"/><use xlink:href="#10" y="32.565"/><use xlink:href="#11" y="34.736"/><use xlink:href="#28" y="39.078"/><use xlink:href="#29" y="41.249"/><use xlink:href="#14" y="45.591"/><use xlink:href="#15" y="47.762"/><use xlink:href="#16" y="60.788"/><use xlink:href="#17" y="62.959"/></svg><svg x="936"><use xlink:href="#a"/><use xlink:href="#1" y="2.171"/><use xlink:href="#18" y="6.513"/><use xlink:href="#19" y="8.684"/><use xlink:href="#4" y="13.026"/><use xlink:href="#5" y="15.197"/><use xlink:href="#6" y="19.539"/><use xlink:href="#7" y="21.71"/><use xlink:href="#8" y="26.052"/><use xlink:href="#9" y="28.223"/><use xlink:href="#10" y="32.565"/><use xlink:href="#11" y="34.736"/><use xlink:href="#12" y="39.078"/><use xlink:href="#13" y="41.249"/><use xlink:href="#30" y="45.591"/><use xlink:href="#31" y="47.762"/><use xlink:href="#16" y="60.788"/><use xlink:href="#17" y="62.959"/></svg><svg x="1092"><use xlink:href="#a"/><use xlink:href="#1" y="2.171"/><use xlink:href="#18" y="6.513"/><use xlink:href="#19" y="8.684"/><use xlink:href="#4" y="13.026"/><use xlink:href="#5" y="15.197"/><use xlink:href="#6" y="19.539"/><use xlink:href="#7" y="21.71"/><use xlink:href="#8" y="26.052"/><use xlink:href="#9" y="28.223"/><use xlink:href="#10" y="32.565"/><use xlink:href="#11" y="34.736"/><use xlink:href="#28" y="39.078"/><use xlink:href="#29" y="41.249"/><use xlink:href="#14" y="45.591"/><use xlink:href="#15" y="47.762"/><use xlink:href="#16" y="60.788"/><use xlink:href="#17" y="62.959"/></svg><svg x="1248"><use xlink:href="#a"/><use xlink:href="#1" y="2.171"/><use xlink:href="#18" y="6.513"/><use xlink:href="#19" y="8.684"/><use xlink:href="#4" y="13.026"/><use xlink:href="#5" y="15.197"/><use xlink:href="#6" y="19.539"/><use xlink:href="#7" y="21.71"/><use xlink:href="#8" y="26.052"/><use xlink:href="#9" y="28.223"/><use xlink:href="#26" y="32.565"/><use xlink:href="#27" y="34.736"/><use xlink:href="#12" y="39.078"/><use xlink:href="#13" y="41.249"/><use xlink:href="#14" y="45.591"/><use xlink:href="#15" y="47.762"/><use xlink:href="#16" y="60.788"/><use xlink:href="#17" y="62.959"/></svg><svg x="1404"><use xlink:href="#a"/><use xlink:href="#1" y="2.171"/><use xlink:href="#18" y="6.513"/><use xlink:href="#19" y="8.684"/><use xlink:href="#4" y="13.026"/><use xlink:href="#5" y="15.197"/><use xlink:href="#6" y="19.539"/><use xlink:href="#7" y="21.71"/><use xlink:href="#24" y="26.052"/><use xlink:href="#25" y="28.223"/><use xlink:href="#10" y="32.565"/><use xlink:href="#11" y="34.736"/><use xlink:href="#12" y="39.078"/><use xlink:href="#13" y="41.249"/><use xlink:href="#14" y="45.591"/><use xlink:href="#15" y="47.762"/><use xlink:href="#16" y="60.788"/><use xlink:href="#17" y="62.959"/></svg><svg x="1560"><use xlink:href="#a"/><use xlink:href="#1" y="2.171"/><use xlink:href="#18" y="6.513"/><use xlink:href="#19" y="8.684"/><use xlink:href="#4" y="13.026"/><use xlink:href="#5" y="15.197"/><use xlink:href="#22" y="19.539"/><use xlink:href="#23" y="21.71"/><use xlink:href="#8" y="26.052"/><use xlink:href="#9" y="28.223"/><use xlink:href="#10" y="32.565"/><use xlink:href="#11" y="34.736"/><use xlink:href="#12" y="39.078"/><use xlink:href="#13" y="41.249"/><use xlink:href="#14" y="45.591"/><use xlink:href="#15" y="47.762"/><use xlink:href="#16" y="60.788"/><use xlink:href="#17" y="62.959"/></svg><svg x="1716"><use xlink:href="#a"/><use xlink:href="#1" y="2.171"/><use xlink:href="#18" y="6.513"/><use xlink:href="#19" y="8.684"/><use xlink:href="#20" y="13.026"/><use xlink:href="#21" y="15.197"/><use xlink:href="#6" y="19.539"/><use xlink:href="#7" y="21.71"/><use xlink:href="#8" y="26.052"/><use xlink:href="#9" y="28.223"/><use xlink:href="#10" y="32.565"/><use xlink:href="#11" y="34.736"/><use xlink:href="#12" y="39.078"/><use xlink:href="#13" y="41.249"/><use xlink:href="#14" y="45.591"/><use xlink:href="#15" y="47.762"/><use xlink:href="#16" y="60.788"/><use xlink:href="#17" y="62.959"/></svg><svg x="1872"><use xlink:href="#a"/><use xlink:href="#1" y="2.171"/><use xlink:href="#2" y="6.513"/><use xlink:href="#3" y="8.684"/><use xlink:href="#4" y="13.026"/><use xlink:href="#5" y="15.197"/><use xlink:href="#6" y="19.539"/><use xlink:href="#7" y="21.71"/><use xlink:href="#8" y="26.052"/><use xlink:href="#9" y="28.223"/><use xlink:href="#10" y="32.565"/><use xlink:href="#11" y="34.736"/><use xlink:href="#12" y="39.078"/><use xlink:href="#13" y="41.249"/><use xlink:href="#14" y="45.591"/><use xlink:href="#15" y="47.762"/><use xlink:href="#16" y="60.788"/><use xlink:href="#17" y="62.959"/></svg><svg x="2028"><use xlink:href="#a"/><use xlink:href="#1" y="2.171"/><use xlink:href="#2" y="6.513"/><use xlink:href="#3" y="8.684"/><use xlink:href="#4" y="13.026"/><use xlink:href="#5" y="15.197"/><use xlink:href="#6" y="19.539"/><use xlink:href="#7" y="21.71"/><use xlink:href="#8" y="26.052"/><use xlink:href="#9" y="28.223"/><use xlink:href="#10" y="32.565"/><use xlink:href="#11" y="34.736"/><use xlink:href="#12" y="39.078"/><use xlink:href="#13" y="41.249"/><use xlink:href="#14" y="45.591"/><use xlink:href="#15" y="47.762"/><use xlink:href="#16" y="60.788"/><use xlink:href="#17" y="62.959"/></svg><svg x="2184"><use xlink:href="#a"/><use xlink:href="#1" y="2.171"/><use xlink:href="#18" y="6.513"/><use xlink:href="#19" y="8.684"/><use xlink:href="#20" y="13.026"/><use xlink:href="#21" y="15.197"/><use xlink:href="#6" y="19.539"/><use xlink:href="#7" y="21.71"/><use xlink:href="#8" y="26.052"/><use xlink:href="#9" y="28.223"/><use xlink:href="#10" y="32.565"/><use xlink:href="#11" y="34.736"/><use xlink:href="#12" y="39.078"/><use xlink:href="#13" y="41.249"/><use xlink:href="#14" y="45.591"/><use xlink:href="#15" y="47.762"/><use xlink:href="#16" y="60.788"/><use xlink:href="#17" y="62.959"/></svg><svg x="2340"><use xlink:href="#a"/><use xlink:href="#1" y="2.171"/><use xlink:href="#18" y="6.513"/><use xlink:href="#19" y="8.684"/><use xlink:href="#4" y="13.026"/><use xlink:href="#5" y="15.197"/><use xlink:href="#22" y="19.539"/><use xlink:href="#23" y="21.71"/><use xlink:href="#8" y="26.052"/><use xlink:href="#9" y="28.223"/><use xlink:href="#10" y="32.565"/><use xlink:href="#11" y="34.736"/><use xlink:href="#12" y="39.078"/><use xlink:href="#13" y="41.249"/><use xlink:href="#14" y="45.591"/><use xlink:href="#15" y="47.762"/><use xlink:href="#16" y="60.788"/><use xlink:href="#17" y="62.959"/></svg><svg x="2496"><use xlink:href="#a"/><use xlink:href="#1" y="2.171"/><use xlink:href="#18" y="6.513"/><use xlink:href="#19" y="8.684"/><use xlink:href="#4" y="13.026"/><use xlink:href="#5" y="15.197"/><use xlink:href="#6" y="19.539"/><use xlink:href="#7" y="21.71"/><use xlink:href="#24" y="26.052"/><use xlink:href="#25" y="28.223"/><use xlink:href="#10" y="32.565"/><use xlink:href="#11" y="34.736"/><use xlink:href="#12" y="39.078"/><use xlink:href="#13" y="41.249"/><use xlink:href="#14" y="45.591"/><use xlink:href="#15" y="47.762"/><use xlink:href="#16" y="60.788"/><use xlink:href="#17" y="62.959"/></svg><svg x="2652"><use xlink:href="#a"/><use xlink:href="#1" y="2.171"/><use xlink:href="#18" y="6.513"/><use xlink:href="#19" y="8.684"/><use xlink:href="#4" y="13.026"/><use xlink:href="#5" y="15.197"/><use xlink:href="#6" y="19.539"/><use xlink:href="#7" y="21.71"/><use xlink:href="#8" y="26.052"/><use xlink:href="#9" y="28.223"/><use xlink:href="#26" y="32.565"/><use xlink:href="#27" y="34.736"/><use xlink:href="#12" y="39.078"/><use xlink:href="#13" y="41.249"/><use xlink:href="#14" y="45.591"/><use xlink:href="#15" y="47.762"/><use xlink:href="#16" y="60.788"/><use xlink:href="#17" y="62.959"/></svg><svg x="2808"><use xlink:href="#a"/><use xlink:href="#1" y="2.171"/><use xlink:href="#18" y="6.513"/><use xlink:href="#19" y="8.684"/><use xlink:href="#4" y="13.026"/><use xlink:href="#5" y="15.197"/><use xlink:href="#6" y="19.539"/><use xlink:href="#7" y="21.71"/><use xlink:href="#8" y="26.052"/><use xlink:href="#9" y="28.223"/><use xlink:href="#10" y="32.565"/><use xlink:href="#11" y="34.736"/><use xlink:href="#28" y="39.078"/><use xlink:href="#29" y="41.249"/><use xlink:href="#14" y="45.591"/><use xlink:href="#15" y="47.762"/><use xlink:href="#16" y="60.788"/><use xlink:href="#17" y="62.959"/></svg><svg x="2964"><use xlink:href="#a"/><use xlink:href="#1" y="2.171"/><use xlink:href="#18" y="6.513"/><use xlink:href="#19" y="8.684"/><use xlink:href="#4" y="13.026"/><use xlink:href="#5" y="15.197"/><use xlink:href="#6" y="19.539"/><use xlink:href="#7" y="21.71"/><use xlink:href="#8" y="26.052"/><use xlink:href="#9" y="28.223"/><use xlink:href="#10" y="32.565"/><use xlink:href="#11" y="34.736"/><use xlink:href="#12" y="39.078"/><use xlink:href="#13" y="41.249"/><use xlink:href="#30" y="45.591"/><use xlink:href="#31" y="47.762"/><use xlink:href="#16" y="60.788"/><use xlink:href="#17" y="62.959"/></svg></svg></g></g></svg></svg>